<?xml version="1.0" standalone="no"?>
<!DOCTYPE svg PUBLIC "-//W3C//DTD SVG 20010904//EN"
 "http://www.w3.org/TR/2001/REC-SVG-20010904/DTD/svg10.dtd">
<svg version="1.0" xmlns="http://www.w3.org/2000/svg"
 width="320.000000pt" height="320.000000pt" viewBox="0 0 320.000000 320.000000"
 preserveAspectRatio="xMidYMid meet">
<metadata>
Created by potrace 1.16, written by Peter Selinger 2001-2019
</metadata>
<g transform="translate(0.000000,320.000000) scale(0.100000,-0.100000)"
fill="#000000" stroke="none">
<path d="M297 3131 c5 -35 3 -39 -22 -43 -30 -6 -40 8 -33 47 5 22 2 25 -24
25 -23 0 -29 -4 -24 -16 3 -9 9 -47 12 -85 6 -63 9 -69 29 -69 21 0 23 4 18
39 -5 33 -2 40 16 46 30 9 41 -1 41 -41 0 -30 3 -34 26 -34 18 0 25 4 21 14
-3 8 -9 46 -13 85 -6 65 -8 71 -29 71 -21 0 -23 -4 -18 -39z"/>
<path d="M2670 2949 c-215 -25 -1282 -142 -1955 -215 -292 -31 -531 -57 -532
-58 -1 -1 3 -37 8 -81 12 -111 193 -1758 230 -2100 16 -154 32 -291 35 -304 6
-29 -96 -38 1014 84 1365 151 1651 183 1657 188 4 5 -36 375 -219 2040 -33
295 -56 467 -62 466 -6 -1 -85 -10 -176 -20z m-935 -1429 c3 -5 -1 -32 -9 -60
-8 -27 -13 -50 -12 -50 2 0 19 6 37 14 32 14 35 13 62 -12 26 -25 27 -25 27
-4 0 12 -5 22 -11 22 -8 0 -8 5 1 15 10 13 9 15 -9 15 -11 0 -21 4 -21 8 0 4
28 8 63 8 34 0 52 -1 40 -3 -21 -4 -33 -23 -15 -23 5 0 7 -13 4 -30 -2 -16 -8
-27 -13 -24 -5 3 -9 0 -9 -6 0 -6 8 -9 18 -6 18 5 62 -25 62 -43 0 -6 7 -11
15 -11 11 0 14 7 10 23 -5 16 3 31 28 56 30 28 38 31 56 21 12 -6 18 -16 15
-22 -4 -6 -3 -8 4 -5 23 15 43 -5 40 -39 -1 -18 3 -39 10 -46 18 -18 15 -26
-10 -30 -30 -4 -34 -24 -7 -39 18 -9 24 -9 34 5 14 18 25 11 25 -15 0 -20 30
-20 155 0 52 9 68 7 118 -11 31 -11 57 -22 57 -23 0 -2 -37 -8 -81 -15 -61 -8
-84 -9 -89 0 -10 17 -62 -9 -55 -28 4 -12 2 -12 -8 -4 -19 16 -27 5 -22 -32 4
-28 3 -27 -7 7 -11 36 -27 50 -29 25 0 -7 -5 -2 -10 11 -8 20 -14 23 -43 18
-19 -3 -39 0 -45 6 -16 16 -15 -25 2 -42 10 -11 10 -13 0 -7 -7 4 -13 2 -13
-3 0 -6 -5 -11 -10 -11 -6 0 -9 3 -8 8 2 4 -7 19 -20 32 l-23 25 3 -30 c2 -21
-1 -30 -12 -30 -10 0 -16 12 -17 40 -2 31 0 35 7 20 8 -19 9 -19 9 3 1 12 -6
25 -15 29 -15 6 -15 7 1 19 16 12 16 14 -2 38 -13 19 -27 25 -54 26 -34 0 -36
-1 -34 -35 0 -19 -3 -35 -7 -35 -4 0 -8 7 -8 15 0 8 -7 15 -16 15 -11 0 -15 6
-11 19 3 14 1 18 -9 14 -19 -7 -18 -43 1 -43 8 0 15 -9 15 -20 0 -37 -28 -21
-35 20 -7 42 -23 51 -49 25 -19 -19 -32 -20 -16 0 7 8 10 26 8 40 -4 19 -1 25
13 25 11 0 19 7 19 15 0 12 -4 13 -19 5 -29 -15 -35 -12 -20 8 13 16 13 16 -7
0 -29 -25 -41 -22 -18 5 17 20 16 19 -11 -3 -17 -14 -34 -28 -39 -32 -6 -5 -2
-14 10 -22 18 -14 18 -15 -6 -24 -41 -15 -100 -22 -100 -11 0 6 -5 7 -10 4 -6
-4 -7 -12 -3 -18 10 -17 4 -47 -14 -65 -13 -13 -14 -10 -10 27 3 27 -1 45 -9
52 -10 8 -14 8 -14 0 0 -6 -8 -10 -17 -9 -10 1 -31 0 -47 0 -29 -2 -29 -3 -10
-18 10 -8 14 -17 9 -20 -6 -2 -9 -23 -7 -45 3 -28 7 -37 13 -28 4 8 5 25 2 38
-4 17 -2 22 6 17 6 -4 11 -18 11 -32 0 -13 5 -24 10 -24 6 0 10 -27 10 -60 0
-33 -3 -60 -7 -60 -3 0 -15 8 -25 17 -15 13 -18 14 -13 2 4 -10 -1 -15 -12
-15 -10 0 -30 -3 -45 -7 -26 -7 -28 -5 -28 20 1 16 7 42 14 58 10 25 10 32 -1
40 -7 6 -16 26 -20 45 -5 30 -4 33 8 23 16 -13 59 -7 59 8 0 5 -4 9 -9 9 -6 0
-9 12 -8 28 2 24 6 27 46 30 24 2 50 10 58 18 8 8 19 12 24 9 5 -4 9 5 9 18 0
14 7 27 15 31 8 3 15 14 15 24 0 10 7 41 15 68 14 47 16 49 54 51 22 1 43 -2
46 -7z m23 -259 c13 -8 20 -107 8 -118 -3 -3 2 -12 12 -20 9 -8 11 -12 5 -8
-8 3 -13 0 -13 -8 0 -18 37 -29 43 -13 11 27 24 -40 15 -73 -9 -30 -7 -37 11
-52 12 -10 21 -20 21 -23 0 -3 -29 -6 -65 -6 -63 0 -88 15 -42 24 12 3 31 7
42 9 12 3 8 5 -12 6 -26 1 -30 4 -26 21 4 15 0 20 -13 21 -18 1 -18 2 -1 6 10
3 17 12 15 21 -3 13 -14 17 -43 16 -22 -1 -34 1 -27 3 15 6 16 43 1 43 -5 0
-7 5 -4 10 3 6 1 10 -4 10 -6 0 -10 6 -8 13 1 7 -10 12 -30 12 -18 0 -38 6
-45 13 -11 11 -10 13 2 12 33 -5 59 1 74 16 9 9 29 20 44 24 23 7 20 8 -20 9
-52 1 -61 12 -25 29 27 13 67 15 85 3z m-501 -51 c3 -11 14 -20 24 -20 13 0
19 -7 19 -24 0 -27 -23 -40 -48 -28 -9 4 -26 6 -37 6 -57 -5 -60 -6 -27 -15
25 -8 38 -20 52 -51 14 -32 19 -37 23 -22 3 11 5 5 6 -15 1 -33 1 -34 -19 -16
-11 10 -20 23 -20 30 0 6 -10 22 -22 35 l-22 24 -10 -35 c-7 -26 -10 -29 -13
-14 -12 66 -10 63 -50 55 -63 -13 -123 -19 -123 -11 0 3 7 16 15 28 11 16 30
22 80 28 64 6 65 7 59 32 -6 23 -4 25 17 20 13 -3 33 -1 44 3 33 14 47 11 52
-10z m173 -279 l0 -49 -85 -7 c-86 -7 -113 -18 -75 -30 23 -7 25 -18 7 -37 -8
-7 -17 -20 -20 -28 -4 -8 -4 0 -1 17 5 28 2 34 -20 45 -19 8 -35 8 -61 1 -22
-7 -35 -7 -35 -1 0 5 -19 7 -47 3 -27 -3 -67 -8 -90 -11 l-42 -5 21 49 21 50
66 6 c36 4 102 13 146 21 94 17 127 21 178 24 l37 1 0 -49z"/>
<path d="M130 1673 c-25 -1 -64 -5 -88 -9 l-42 -5 0 -79 c0 -61 3 -78 13 -74
18 7 61 -41 54 -61 -4 -8 -20 -18 -37 -21 -35 -7 -37 -12 -12 -30 23 -18 27
-17 48 4 10 9 22 17 28 17 6 0 11 20 12 45 1 61 2 62 22 51 11 -6 30 -5 54 4
21 7 40 10 44 6 4 -3 4 16 0 43 -3 27 -6 64 -6 82 0 29 -3 34 -22 32 -13 -1
-43 -3 -68 -5z"/>
<path d="M109 1353 c-1 -16 -3 -21 -6 -12 -3 14 -9 15 -34 6 -24 -10 -32 -9
-39 3 -8 13 -10 12 -10 -2 0 -10 -4 -18 -10 -18 -6 0 -10 -47 -10 -121 l0
-121 38 6 c20 3 64 8 97 11 136 13 135 13 135 51 0 24 -4 33 -12 28 -7 -5 -8
-3 -3 7 16 25 3 129 -16 129 -6 0 -7 -6 -4 -12 4 -7 -4 -1 -17 13 -23 26 -77
59 -98 59 -5 0 -11 -12 -11 -27z"/>
<path d="M3145 1263 l-21 -4 23 -197 c12 -108 22 -205 23 -214 0 -10 7 -18 15
-18 13 0 15 31 15 220 0 240 4 225 -55 213z"/>
<path d="M188 89 c-49 -13 -118 -60 -118 -81 0 -4 52 -8 116 -8 65 0 113 4
110 9 -3 5 1 12 10 15 23 9 31 7 14 -4 -8 -5 -11 -12 -7 -16 4 -4 13 -2 19 4
15 15 52 16 43 2 -3 -5 2 -10 11 -10 13 0 15 3 7 11 -6 6 -9 26 -6 45 6 38 0
42 -25 18 -15 -15 -17 -15 -31 2 -17 20 -92 27 -143 13z"/>
</g>
</svg>
